<svg xmlns="http://www.w3.org/2000/svg" viewBox="0 0 31.16 10.39"><defs><style>.cls-1{fill:#222131;}</style></defs><g id="圖層_2" data-name="圖層 2"><g id="圖層_3" data-name="圖層 3"><rect class="cls-1" x="27.71" y="6.92" width="3.45" height="3.47"/><rect class="cls-1" x="27.71" y="3.45" width="3.45" height="3.47"/><rect class="cls-1" x="27.71" width="3.45" height="3.45"/><rect class="cls-1" x="24.24" y="6.92" width="3.47" height="3.47"/><rect class="cls-1" x="24.24" y="3.45" width="3.47" height="3.47"/><rect class="cls-1" x="24.24" width="3.47" height="3.45"/><rect class="cls-1" x="20.77" y="6.92" width="3.47" height="3.47"/><rect class="cls-1" x="20.77" y="3.45" width="3.47" height="3.47"/><rect class="cls-1" x="20.77" width="3.47" height="3.45"/><rect class="cls-1" x="17.3" y="6.92" width="3.47" height="3.47"/><rect class="cls-1" x="17.3" y="3.45" width="3.47" height="3.47"/><rect class="cls-1" x="17.3" width="3.47" height="3.45"/><rect class="cls-1" x="13.85" y="6.92" width="3.45" height="3.47"/><rect class="cls-1" x="13.85" y="3.45" width="3.45" height="3.47"/><rect class="cls-1" x="13.85" width="3.45" height="3.45"/><rect class="cls-1" x="10.39" y="6.92" width="3.47" height="3.47"/><rect class="cls-1" x="10.39" y="3.45" width="3.47" height="3.47"/><rect class="cls-1" x="10.39" width="3.47" height="3.45"/><rect class="cls-1" x="6.92" y="6.92" width="3.47" height="3.47"/><rect class="cls-1" x="6.92" y="3.45" width="3.47" height="3.47"/><rect class="cls-1" x="6.92" width="3.47" height="3.45"/><rect class="cls-1" x="3.45" y="6.92" width="3.47" height="3.47"/><rect class="cls-1" x="3.45" y="3.45" width="3.47" height="3.47"/><rect class="cls-1" x="3.45" width="3.47" height="3.45"/><rect class="cls-1" y="6.92" width="3.45" height="3.47"/><rect class="cls-1" y="3.45" width="3.45" height="3.47"/><rect class="cls-1" width="3.45" height="3.45"/></g></g></svg>