<svg xmlns="http://www.w3.org/2000/svg" viewBox="0 0 31.18 24.24"><defs><style>.cls-1{fill:#222131;}</style></defs><g id="圖層_2" data-name="圖層 2"><g id="圖層_1-2" data-name="圖層 1"><rect class="cls-1" x="27.71" y="20.77" width="3.47" height="3.47"/><rect class="cls-1" x="27.71" width="3.47" height="3.45"/><rect class="cls-1" x="24.26" y="20.77" width="3.45" height="3.47"/><rect class="cls-1" x="24.26" y="17.3" width="3.45" height="3.47"/><rect class="cls-1" x="24.26" y="3.45" width="3.45" height="3.47"/><rect class="cls-1" x="24.26" width="3.45" height="3.45"/><rect class="cls-1" x="20.79" y="20.77" width="3.47" height="3.47"/><rect class="cls-1" x="20.79" y="17.3" width="3.47" height="3.47"/><rect class="cls-1" x="20.79" y="13.85" width="3.47" height="3.45"/><rect class="cls-1" x="20.79" y="6.92" width="3.47" height="3.47"/><rect class="cls-1" x="20.79" y="3.45" width="3.47" height="3.47"/><rect class="cls-1" x="20.79" width="3.47" height="3.45"/><rect class="cls-1" x="17.32" y="17.3" width="3.47" height="3.47"/><rect class="cls-1" x="17.32" y="13.85" width="3.47" height="3.45"/><rect class="cls-1" x="17.32" y="10.39" width="3.47" height="3.47"/><rect class="cls-1" x="17.32" y="6.92" width="3.47" height="3.47"/><rect class="cls-1" x="17.32" y="3.45" width="3.47" height="3.47"/><rect class="cls-1" x="13.85" y="13.85" width="3.47" height="3.45"/><rect class="cls-1" x="13.85" y="10.39" width="3.47" height="3.47"/><rect class="cls-1" x="10.41" y="17.3" width="3.45" height="3.47"/><rect class="cls-1" x="10.41" y="13.85" width="3.45" height="3.45"/><rect class="cls-1" x="10.41" y="10.39" width="3.45" height="3.47"/><rect class="cls-1" x="10.41" y="6.92" width="3.45" height="3.47"/><rect class="cls-1" x="10.41" y="3.45" width="3.45" height="3.47"/><rect class="cls-1" x="6.94" y="20.77" width="3.47" height="3.47"/><rect class="cls-1" x="6.94" y="17.3" width="3.47" height="3.47"/><rect class="cls-1" x="6.94" y="13.85" width="3.47" height="3.45"/><rect class="cls-1" x="6.94" y="6.92" width="3.47" height="3.47"/><rect class="cls-1" x="6.94" y="3.45" width="3.47" height="3.47"/><rect class="cls-1" x="6.94" width="3.47" height="3.45"/><rect class="cls-1" x="3.47" y="20.77" width="3.47" height="3.47"/><rect class="cls-1" x="3.47" y="17.3" width="3.47" height="3.47"/><rect class="cls-1" x="3.47" y="3.45" width="3.47" height="3.47"/><rect class="cls-1" x="3.47" width="3.47" height="3.45"/><rect class="cls-1" y="20.77" width="3.47" height="3.47"/><rect class="cls-1" width="3.47" height="3.45"/></g></g></svg>